<svg height="464pt" viewBox="0 0 464 464" width="464pt" xmlns="http://www.w3.org/2000/svg"><path d="m256 328c0 13.253906-10.746094 24-24 24s-24-10.746094-24-24 10.746094-24 24-24 24 10.746094 24 24zm0 0"/><path d="m284.289062 308.105469c-.394531-1.035157-.800781-2.035157-1.234374-3.027344l-1.550782-3.460937 8.648438-17.296876-14.472656-14.472656-17.296876 8.648438-3.460937-1.550782c-.992187-.441406-1.992187-.839843-3.027344-1.234374l-3.542969-1.34375-6.121093-18.367188h-20.46875l-6.121094 18.367188-3.542969 1.34375c-1.035156.394531-2.035156.800781-3.027344 1.234374l-3.460937 1.550782-17.296875-8.648438-14.472656 14.472656 8.648437 17.296876-1.550781 3.460937c-.441406.992187-.839844 1.992187-1.234375 3.027344l-1.34375 3.542969-18.359375 6.121093v20.46875l18.367188 6.121094 1.34375 3.542969c.394531 1.035156.800781 2.035156 1.234374 3.027344l1.550782 3.460937-8.648438 17.296875 14.472656 14.472656 17.296876-8.648437 3.460937 1.550781c.992187.441406 1.992187.839844 3.027344 1.234375l3.542969 1.34375 6.121093 18.367187h20.46875l6.121094-18.367187 3.542969-1.34375c1.035156-.394531 2.035156-.800781 3.027344-1.234375l3.460937-1.550781 17.296875 8.648437 14.472656-14.472656-8.648437-17.296875 1.550781-3.460937c.441406-.992188.839844-1.992188 1.234375-3.027344l1.34375-3.542969 18.359375-6.121094v-20.46875l-18.367188-6.121093zm-52.289062 59.894531c-22.054688 0-40-17.945312-40-40s17.945312-40 40-40 40 17.945312 40 40-17.945312 40-40 40zm0 0"/><path d="m192 0-32 32h32zm0 0"/><path d="m408 140.6875-18.34375-18.34375-11.3125 11.3125 37.65625 37.65625 37.65625-37.65625-11.3125-11.3125-18.34375 18.34375v-60.6875h-120v-80h-96v48h-48v32h-120v60.6875l-18.34375-18.34375-11.3125 11.3125 37.65625 37.65625 37.65625-37.65625-11.3125-11.3125-18.34375 18.34375v-44.6875h104v80h64v64h16v-64h64v-80h104zm-120 19.3125h-112v-16h112zm0-32h-112v-16h112zm0-32h-112v-16h112zm0-32h-64v-16h64zm0-32h-64v-16h64zm0 0"/><path d="m464 232v-48h-96v48h40v88h-88v16h32v81.472656c-9.289062 3.3125-16 12.113282-16 22.527344 0 13.230469 10.769531 24 24 24s24-10.769531 24-24c0-10.414062-6.710938-19.214844-16-22.527344v-81.472656h40v33.136719c-13.769531 3.574219-24 15.992187-24 30.863281 0 17.648438 14.351562 32 32 32s32-14.351562 32-32c0-14.871094-10.230469-27.289062-24-30.863281v-137.136719zm-104 216c-4.414062 0-8-3.585938-8-8s3.585938-8 8-8 8 3.585938 8 8-3.585938 8-8 8zm72-48c0 8.824219-7.175781 16-16 16s-16-7.175781-16-16 7.175781-16 16-16 16 7.183594 16 16zm0 0"/><path d="m56 232h40v-48h-96v48h40v137.136719c-13.769531 3.574219-24 15.992187-24 30.863281 0 17.648438 14.351562 32 32 32s32-14.351562 32-32c0-14.871094-10.230469-27.289062-24-30.863281v-33.136719h40v81.472656c-9.289062 3.3125-16 12.113282-16 22.527344 0 13.230469 10.769531 24 24 24s24-10.769531 24-24c0-10.414062-6.710938-19.214844-16-22.527344v-81.472656h32v-16h-88zm48 216c-4.414062 0-8-3.585938-8-8s3.585938-8 8-8 8 3.585938 8 8-3.585938 8-8 8zm-40-48c0 8.824219-7.175781 16-16 16s-16-7.175781-16-16 7.175781-16 16-16 16 7.183594 16 16zm0 0"/></svg>